<svg width="250" height="44" viewBox="0 0 250 44" fill="none" xmlns="http://www.w3.org/2000/svg">
<path d="M152.931 9.58716V24.3352C152.935 26.9776 153.987 29.5103 155.857 31.378C157.726 33.2456 160.259 34.2956 162.902 34.2978H182.483V28.7612H162.902C161.796 28.7576 160.732 28.341 159.917 27.5931C159.103 26.8452 158.597 25.8201 158.5 24.7187H172.513C175.155 24.7166 177.689 23.6666 179.558 21.7989C181.427 19.9313 182.479 17.3985 182.483 14.7562V9.58716H152.931ZM176.899 15.1237C176.805 16.2271 176.301 17.2553 175.486 18.0052C174.671 18.7551 173.604 19.1722 172.497 19.1742H158.476V15.1237H176.899Z" fill="white"/>
<path d="M249.672 19.1742C249.574 16.6631 248.532 14.2815 246.755 12.5045C244.978 10.7275 242.596 9.68575 240.085 9.58716H225.705V0.00012207H220.16V34.2978H225.705V15.1237H239.734C240.906 15.1258 242.03 15.593 242.858 16.4228C243.687 17.2527 244.152 18.3773 244.152 19.5497V34.2978H249.744V19.1742H249.672Z" fill="white"/>
<path d="M186.526 9.58716V24.7187C186.617 27.2323 187.656 29.6182 189.435 31.3967C191.213 33.1752 193.599 34.2145 196.113 34.3058H216.086V28.7612H196.512C195.34 28.7591 194.216 28.2919 193.388 27.4621C192.56 26.6323 192.094 25.5077 192.094 24.3352V15.1237H216.062V9.58716H186.526Z" fill="white"/>
<path d="M134.492 0.00012207H128.9V24.7187C128.996 27.2304 130.037 29.6131 131.815 31.3905C133.592 33.1679 135.975 34.209 138.487 34.3058H148.873V28.7612H138.886C137.714 28.7591 136.59 28.2919 135.762 27.4621C134.933 26.6323 134.468 25.5077 134.468 24.3352V15.1237H148.849V9.58716H134.468L134.492 0.00012207Z" fill="white"/>
<path d="M76.147 24.3352C76.1449 25.5098 75.6769 26.6356 74.8456 27.4654C74.0143 28.2952 72.8876 28.7612 71.713 28.7612H57.692V9.58716H52.0995V34.3058H72.0726C74.5843 34.209 76.9669 33.1679 78.7443 31.3905C80.5217 29.6131 81.5628 27.2304 81.6596 24.7187V9.58716H76.123L76.147 24.3352Z" fill="white"/>
<path d="M95.345 9.58716V43.8848H100.881V34.2978H115.262C117.774 34.201 120.156 33.1599 121.934 31.3825C123.711 29.6051 124.752 27.2224 124.849 24.7107V9.58716H95.345ZM119.313 24.3352C119.313 25.5077 118.847 26.6323 118.019 27.4621C117.191 28.2919 116.067 28.7591 114.895 28.7612H100.858V15.1237H119.313V24.3352Z" fill="white"/>
<path d="M91.2944 9.5791H85.7419V34.2977H91.2944V9.5791Z" fill="white"/>
<path d="M22.068 31.9091C24.0377 31.9059 25.9623 31.319 27.5985 30.2223C29.2348 29.1257 30.5092 27.5687 31.2608 25.748C32.0124 23.9273 32.2074 21.9247 31.8211 19.9932C31.4349 18.0617 30.4849 16.288 29.091 14.8963C27.697 13.5046 25.9218 12.5574 23.9897 12.1743C22.0576 11.7912 20.0553 11.9894 18.2358 12.7439C16.4163 13.4984 14.8613 14.7753 13.7673 16.4133C12.6733 18.0513 12.0894 19.9768 12.0894 21.9466C12.0958 24.5896 13.1496 27.1223 15.02 28.9898C16.8904 30.8572 19.425 31.907 22.068 31.9091ZM17.65 21.9466C17.6485 21.0712 17.9071 20.2151 18.3929 19.4869C18.8788 18.7587 19.57 18.1913 20.3789 17.8566C21.1878 17.5219 22.0778 17.4351 22.9361 17.6071C23.7944 17.7791 24.5823 18.2022 25.1997 18.8228C25.8141 19.4426 26.2316 20.2302 26.3996 21.0866C26.5676 21.943 26.4785 22.83 26.1439 23.636C25.8092 24.442 25.2436 25.131 24.5184 25.6165C23.7932 26.102 22.9407 26.3623 22.068 26.3646C20.8969 26.3624 19.7743 25.8963 18.9463 25.0682C18.1182 24.2401 17.6521 23.1176 17.65 21.9466Z" fill="white"/>
<path d="M30.4006 5.54463H34.0756C34.6558 5.54568 35.2301 5.66102 35.7657 5.88402C36.3014 6.10701 36.7878 6.4333 37.1973 6.84429C37.6068 7.25528 37.9314 7.74289 38.1525 8.27931C38.3735 8.81573 38.4868 9.39045 38.4857 9.97063V13.6297C38.4983 15.1046 39.0932 16.5148 40.1406 17.5532C41.188 18.5916 42.6032 19.1743 44.0781 19.1742V9.97063C44.0781 7.32628 43.0277 4.79028 41.1579 2.92044C39.288 1.05061 36.752 0.00012207 34.1076 0.00012207H24.8721C24.8847 1.47501 25.4795 2.88519 26.527 3.92363C27.5744 4.96207 28.9896 5.54468 30.4645 5.54463" fill="white"/>
<path d="M5.64297 13.6297V9.97063C5.64297 8.79816 6.10822 7.67361 6.93654 6.8438C7.76485 6.01399 8.88856 5.54675 10.061 5.54463H13.744C15.2145 5.54463 16.6248 4.9605 17.6646 3.9207C18.7044 2.88091 19.2885 1.47062 19.2885 0.00012207H10.061C7.41668 0.00012207 4.88062 1.05061 3.01079 2.92044C1.14095 4.79028 0.0905151 7.32628 0.0905151 9.97063V19.1742C1.56545 19.1743 2.98065 18.5916 4.02806 17.5532C5.07548 16.5148 5.67032 15.1046 5.68296 13.6297" fill="white"/>
<path d="M38.4857 30.2632V33.9303C38.4857 35.1006 38.0214 36.2231 37.1946 37.0515C36.3678 37.8798 35.246 38.3462 34.0757 38.3483H30.3927C29.6612 38.342 28.9358 38.4805 28.2581 38.7558C27.5803 39.0311 26.9637 39.4378 26.4439 39.9524C25.9241 40.4671 25.5112 41.0795 25.2291 41.7544C24.947 42.4293 24.8013 43.1533 24.8002 43.8848H34.0358C35.3441 43.8859 36.6398 43.6292 37.8489 43.1295C39.058 42.6298 40.1569 41.8969 41.0827 40.9725C42.0086 40.0482 42.7432 38.9504 43.2448 37.7421C43.7465 36.5338 44.0053 35.2386 44.0063 33.9303V24.7187C43.2742 24.7124 42.548 24.8511 41.8697 25.127C41.1915 25.4028 40.5747 25.8101 40.0547 26.3256C39.5348 26.8411 39.1221 27.4545 38.8404 28.1303C38.5588 28.8061 38.4138 29.5311 38.4139 30.2632" fill="white"/>
<path d="M13.7432 38.3483H10.0602C8.88915 38.3462 7.76656 37.88 6.93848 37.0519C6.1104 36.2239 5.6443 35.1014 5.64219 33.9303V30.2632C5.64221 29.5311 5.49724 28.8061 5.21561 28.1303C4.93398 27.4545 4.52128 26.8411 4.00134 26.3256C3.48139 25.8101 2.86444 25.4028 2.18621 25.127C1.50798 24.8511 0.781882 24.7124 0.0497437 24.7187V33.9303C0.053977 36.5719 1.10629 39.1038 2.97567 40.9702C4.84505 42.8366 7.37867 43.8848 10.0203 43.8848H19.2478C19.2457 42.4157 18.6606 41.0075 17.621 39.9694C16.5814 38.9313 15.1724 38.3483 13.7033 38.3483" fill="white"/>
<path d="M129.155 43.4612L129.435 42.8381C129.844 43.1416 130.34 43.3066 130.849 43.3095C131.52 43.3095 131.792 43.0777 131.792 42.7582C131.792 41.8314 129.251 42.4387 129.251 40.8488C129.251 40.1538 129.802 39.5705 130.977 39.5705C131.479 39.5593 131.975 39.6895 132.407 39.9461L132.159 40.5691C131.799 40.3551 131.388 40.2394 130.969 40.2337C130.306 40.2337 130.042 40.4813 130.042 40.8168C130.042 41.7196 132.583 41.1284 132.583 42.7023C132.583 43.3894 132.031 43.9725 130.849 43.9725C130.243 43.9941 129.648 43.8142 129.155 43.4612Z" fill="white"/>
<path d="M141.555 43.9088L141.539 41.0726L140.132 43.4215H139.773L138.367 41.1046V43.9088H137.608V39.6266H138.263L139.973 42.4707L141.642 39.6266H142.298L142.305 43.9088H141.555Z" fill="white"/>
<path d="M150.478 42.9181H148.329L147.906 43.9088H147.107L149.04 39.6266H149.839L151.773 43.9088H150.974L150.478 42.9181ZM150.207 42.3029L149.408 40.4175L148.609 42.3029H150.207Z" fill="white"/>
<path d="M159.322 43.909L158.452 42.6546H157.317V43.901H156.518V39.6188H158.284C159.41 39.6188 160.113 40.194 160.113 41.1447C160.128 41.4401 160.046 41.732 159.88 41.9769C159.715 42.2218 159.474 42.4064 159.195 42.5029L160.185 43.901L159.322 43.909ZM158.244 40.2978H157.317V42.0075H158.244C158.955 42.0075 159.306 41.6879 159.306 41.1526C159.306 40.6174 158.955 40.2978 158.244 40.2978Z" fill="white"/>
<path d="M166.041 40.2977H164.619V39.6266H168.262V40.2977H166.84V43.9088H166.041V40.2977Z" fill="white"/>
<path d="M178.656 43.4612L178.936 42.8381C179.345 43.1415 179.841 43.3066 180.35 43.3095C181.013 43.3095 181.301 43.0777 181.301 42.7581C181.301 41.8314 178.752 42.4387 178.752 40.8488C178.752 40.1538 179.303 39.5705 180.478 39.5705C180.978 39.5595 181.471 39.6897 181.9 39.946L181.652 40.5691C181.296 40.3521 180.887 40.2362 180.47 40.2336C179.807 40.2336 179.535 40.4813 179.535 40.8168C179.535 41.7196 182.084 41.1284 182.084 42.7023C182.084 43.3893 181.524 43.9725 180.35 43.9725C179.745 43.9928 179.149 43.8131 178.656 43.4612Z" fill="white"/>
<path d="M186.797 41.7998C186.773 41.3368 186.889 40.8774 187.129 40.4807C187.369 40.0841 187.722 39.7686 188.143 39.5749C188.564 39.3813 189.034 39.3184 189.491 39.3944C189.948 39.4705 190.372 39.682 190.708 40.0015C191.044 40.3211 191.276 40.734 191.375 41.1869C191.474 41.6399 191.434 42.112 191.261 42.5422C191.089 42.9725 190.791 43.341 190.407 43.6004C190.023 43.8597 189.57 43.9978 189.106 43.9968C188.808 44.012 188.511 43.9664 188.231 43.8628C187.951 43.7592 187.696 43.5997 187.48 43.3942C187.264 43.1886 187.092 42.9413 186.975 42.6671C186.857 42.393 186.797 42.0979 186.797 41.7998ZM190.624 41.7998C190.63 41.5993 190.594 41.3998 190.52 41.2135C190.445 41.0273 190.334 40.8583 190.191 40.7169C190.049 40.5754 189.88 40.4646 189.693 40.3911C189.506 40.3177 189.307 40.2832 189.106 40.2898C188.808 40.2914 188.517 40.3813 188.269 40.5481C188.022 40.715 187.83 40.9514 187.717 41.2275C187.604 41.5035 187.575 41.8068 187.634 42.0992C187.693 42.3915 187.838 42.6599 188.049 42.8703C188.261 43.0807 188.53 43.2236 188.822 43.2813C189.115 43.3389 189.418 43.3085 189.694 43.194C189.969 43.0795 190.205 42.8859 190.37 42.6378C190.536 42.3897 190.624 42.0981 190.624 41.7998Z" fill="white"/>
<path d="M196.504 39.6266H197.295V43.2377H199.54V43.9088H196.504V39.6266Z" fill="white"/>
<path d="M204.31 42.0474V39.6506H205.109V42.0474C205.109 42.9262 205.508 43.3097 206.211 43.3097C206.914 43.3097 207.298 42.9262 207.298 42.0474V39.6506H208.097V42.0474C208.097 42.5453 207.899 43.0228 207.547 43.3749C207.195 43.727 206.717 43.9248 206.219 43.9248C205.721 43.9248 205.244 43.727 204.892 43.3749C204.539 43.0228 204.342 42.5453 204.342 42.0474" fill="white"/>
<path d="M214.208 40.2977H212.786V39.6266H216.429V40.2977H215.007V43.9088H214.208V40.2977Z" fill="white"/>
<path d="M222.062 39.6266H221.263V43.9088H222.062V39.6266Z" fill="white"/>
<path d="M227.135 41.7998C227.111 41.3372 227.226 40.8781 227.466 40.4816C227.705 40.0852 228.058 39.7696 228.479 39.5757C228.9 39.3819 229.369 39.3185 229.826 39.3939C230.283 39.4693 230.707 39.6801 231.043 39.9988C231.379 40.3175 231.612 40.7297 231.711 41.1821C231.811 41.6344 231.773 42.1063 231.601 42.5367C231.43 42.967 231.134 43.3362 230.75 43.5965C230.367 43.8567 229.915 43.9962 229.452 43.9968C229.153 44.0131 228.855 43.9683 228.574 43.8652C228.294 43.7622 228.037 43.6029 227.82 43.3972C227.603 43.1916 227.431 42.9439 227.313 42.6692C227.195 42.3945 227.134 42.0987 227.135 41.7998ZM230.962 41.7998C230.963 41.5008 230.876 41.2081 230.711 40.9587C230.546 40.7094 230.311 40.5145 230.035 40.399C229.759 40.2835 229.455 40.2525 229.162 40.3099C228.869 40.3672 228.599 40.5104 228.387 40.7212C228.175 40.9321 228.03 41.2011 227.971 41.4942C227.912 41.7873 227.942 42.0914 228.056 42.3678C228.17 42.6441 228.364 42.8804 228.612 43.0467C228.86 43.213 229.153 43.3017 229.452 43.3017C229.651 43.3084 229.85 43.2741 230.035 43.2011C230.221 43.1281 230.39 43.0177 230.531 42.877C230.673 42.7363 230.784 42.5682 230.858 42.383C230.932 42.1977 230.967 41.9992 230.962 41.7998Z" fill="white"/>
<path d="M240.652 39.6266V43.9088H239.997L237.633 41.0087V43.9088H236.842V39.6266H237.489L239.87 42.5267V39.6266H240.652Z" fill="white"/>
<path d="M245.678 43.4612L245.949 42.8381C246.361 43.1432 246.859 43.3084 247.371 43.3095C248.043 43.3095 248.322 43.0777 248.322 42.7582C248.322 41.8314 245.766 42.4387 245.766 40.8488C245.766 40.1538 246.325 39.5705 247.499 39.5705C248.002 39.5593 248.497 39.6895 248.929 39.9461L248.674 40.5691C248.319 40.355 247.914 40.2392 247.499 40.2337C246.828 40.2337 246.557 40.4813 246.557 40.8168C246.557 41.7196 249.097 41.1284 249.097 42.7023C249.097 43.3894 248.546 43.9725 247.371 43.9725C246.766 43.9941 246.17 43.8142 245.678 43.4612Z" fill="white"/>
</svg>